# xmcd
# Copyright (C) 1995-1998 Ti Kan
#
# Track frame offsets:
#       150
#       10364
#       26587
#       39614
#       54652
#       73330
#
# Disc length: 1140 seconds
#
# Revision: 0
# Processed by: cddbd v1.5.2PL0 Copyright (c) Steve Scherf et al.
# Submitted via: CD-Transfer v1.0
#
DISCID=51047206
DTITLE=Taxi Taxi - Taxi Taxi
DYEAR=2007
DGENRE=
TTITLE0=All I Think Of
TTITLE1=Belle
TTITLE2=To Hide This Way
TTITLE3=Water
TTITLE4=Heart
TTITLE5=Mary
EXTD=
EXTT0=
EXTT1=
EXTT2=
EXTT3=
EXTT4=
EXTT5=
PLAYORDER=
